# xmcd
#
# Track frame offsets:
# 150
# 18167
# 36967
# 53050
# 73002
# 92715
# 110677
# 128065
# 146995
# 163175
# 184425
# 204010
# 221897
# 239122
# 257382
# 278900
# 299230
# 315672
# 332347
#
# Disc length: 4631 seconds
#
#
# Revision: 4
# Processed by: cddbd v1.5.2PL0 Copyright (c) Steve Scherf et al.
# Submitted via: FreeRIP 2.52 
#
DISCID=2e121513
DTITLE=Various Artist - 19 Love Ballads
DYEAR=1900
DGENRE=Acid
TTITLE0=The Ghost Of You
TTITLE1=The Actor
TTITLE2=Sleeping Child
TTITLE3=Complicated Heart
TTITLE4=25 Minutes
TTITLE5=Out Of The Blue
TTITLE6=I Wanna Dance
TTITLE7=That's Why (You Go Away)
TTITLE8=Love Will Never Lie
TTITLE9=How Many Hours
TTITLE10=I'm Gonna Be Around
TTITLE11=Nothing To Lose
TTITLE12=Paint My Love
TTITLE13=Breaking My Heart
TTITLE14=Strange Foreign Beauty
TTITLE15=You Took My Heart Away
TTITLE16=Blue Night
TTITLE17=More Than A Friend
TTITLE18=Forever And A Day
EXTD=
EXTT0=
EXTT1=
EXTT2=
EXTT3=
EXTT4=
EXTT5=
EXTT6=
EXTT7=
EXTT8=
EXTT9=
EXTT10=
EXTT11=
EXTT12=
EXTT13=
EXTT14=
EXTT15=
EXTT16=
EXTT17=
EXTT18=
PLAYORDER=
